<?xml version="1.0" encoding="UTF-8" standalone="no"?>
<!-- Created with Inkscape (http://www.inkscape.org/) -->

<svg
   xmlns:dc="http://purl.org/dc/elements/1.1/"
   xmlns:cc="http://creativecommons.org/ns#"
   xmlns:rdf="http://www.w3.org/1999/02/22-rdf-syntax-ns#"
   xmlns:svg="http://www.w3.org/2000/svg"
   xmlns="http://www.w3.org/2000/svg"
   xmlns:sodipodi="http://sodipodi.sourceforge.net/DTD/sodipodi-0.dtd"
   xmlns:inkscape="http://www.inkscape.org/namespaces/inkscape"
   width="288"
   height="288"
   viewBox="0 0 76.199998 76.200002"
   version="1.1"
   id="svg5799"
   inkscape:version="0.92.0 r15299"
   sodipodi:docname="en_unset.svg">
  <defs
     id="defs5793" />
  <sodipodi:namedview
     id="base"
     pagecolor="#ffffff"
     bordercolor="#666666"
     borderopacity="1.0"
     inkscape:pageopacity="0.0"
     inkscape:pageshadow="2"
     inkscape:zoom="1.4"
     inkscape:cx="77.625541"
     inkscape:cy="251.5418"
     inkscape:document-units="mm"
     inkscape:current-layer="layer1"
     showgrid="false"
     units="px"
     inkscape:pagecheckerboard="true"
     inkscape:window-width="1920"
     inkscape:window-height="1057"
     inkscape:window-x="-8"
     inkscape:window-y="-8"
     inkscape:window-maximized="1" />
  <metadata
     id="metadata5796">
    <rdf:RDF>
      <cc:Work
         rdf:about="">
        <dc:format>image/svg+xml</dc:format>
        <dc:type
           rdf:resource="http://purl.org/dc/dcmitype/StillImage" />
        <dc:title></dc:title>
      </cc:Work>
    </rdf:RDF>
  </metadata>
  <g
     inkscape:label="Layer 1"
     inkscape:groupmode="layer"
     id="layer1"
     transform="translate(0,-220.79998)">
    <g
       transform="matrix(0.35409938,0,0,0.35409938,-78.203452,500.23487)"
       id="g4989"
       style="fill:none;opacity:0">
      <path
         d="m 285.38,-647.79 v -0.95 h 8.79 v 0.95 z"
         id="path4961"
         inkscape:connector-curvature="0"
         style="fill:none" />
      <path
         d="m 303.56,-656.68 h -5.6 v 6 h -1.1 v -12.78 h 1.1 v 5.82 h 5.6 v -5.82 h 1.1 v 12.78 h -1.1 z"
         id="path4963"
         inkscape:connector-curvature="0"
         style="fill:none" />
      <path
         d="m 311.74,-650.46 c -1.29,0 -2.3,-0.43 -3.03,-1.3 -0.73,-0.87 -1.09,-2.08 -1.09,-3.64 0,-1.56 0.36,-2.78 1.09,-3.64 0.73,-0.87 1.74,-1.3 3.03,-1.3 1.29,0 2.3,0.43 3.03,1.3 0.73,0.87 1.09,2.08 1.09,3.64 0,1.56 -0.36,2.78 -1.09,3.64 -0.72,0.87 -1.73,1.3 -3.03,1.3 z m 0,-0.91 c 0.93,0 1.66,-0.29 2.2,-0.88 0.54,-0.59 0.81,-1.44 0.81,-2.56 v -1.17 c 0,-1.12 -0.27,-1.98 -0.81,-2.56 -0.54,-0.58 -1.27,-0.88 -2.2,-0.88 -0.93,0 -1.66,0.29 -2.2,0.88 -0.54,0.59 -0.81,1.44 -0.81,2.56 v 1.17 c 0,1.12 0.27,1.98 0.81,2.56 0.54,0.58 1.28,0.88 2.2,0.88 z"
         id="path4965"
         inkscape:connector-curvature="0"
         style="fill:none" />
      <path
         d="m 318.37,-650.68 v -9.45 h 0.97 v 1.1 h 0.05 c 0.15,-0.37 0.36,-0.68 0.65,-0.93 0.29,-0.26 0.69,-0.38 1.22,-0.38 0.54,0 0.95,0.13 1.24,0.39 0.29,0.26 0.48,0.62 0.55,1.09 h 0.04 c 0.17,-0.43 0.42,-0.78 0.73,-1.06 0.32,-0.28 0.76,-0.42 1.32,-0.42 0.73,0 1.24,0.24 1.53,0.72 0.29,0.48 0.43,1.18 0.43,2.1 v 6.85 h -0.97 v -6.68 c 0,-0.77 -0.11,-1.31 -0.32,-1.63 -0.21,-0.32 -0.55,-0.48 -1.02,-0.48 -0.44,0 -0.81,0.15 -1.12,0.45 -0.31,0.3 -0.46,0.75 -0.46,1.36 v 6.98 h -0.97 v -6.68 c 0,-0.77 -0.11,-1.31 -0.32,-1.63 -0.21,-0.32 -0.55,-0.48 -1.02,-0.48 -0.44,0 -0.81,0.15 -1.12,0.45 -0.31,0.3 -0.46,0.75 -0.46,1.36 v 6.98 h -0.95 z"
         id="path4967"
         inkscape:connector-curvature="0"
         style="fill:none" />
      <path
         d="m 333.71,-650.46 c -1.29,0 -2.3,-0.43 -3.03,-1.3 -0.73,-0.87 -1.09,-2.08 -1.09,-3.64 0,-1.56 0.36,-2.78 1.09,-3.64 0.73,-0.87 1.74,-1.3 3.03,-1.3 1.29,0 2.3,0.43 3.03,1.3 0.73,0.87 1.09,2.08 1.09,3.64 0,1.56 -0.36,2.78 -1.09,3.64 -0.72,0.87 -1.73,1.3 -3.03,1.3 z m 0,-0.91 c 0.93,0 1.66,-0.29 2.2,-0.88 0.54,-0.59 0.81,-1.44 0.81,-2.56 v -1.17 c 0,-1.12 -0.27,-1.98 -0.81,-2.56 -0.54,-0.58 -1.27,-0.88 -2.2,-0.88 -0.93,0 -1.66,0.29 -2.2,0.88 -0.54,0.59 -0.81,1.44 -0.81,2.56 v 1.17 c 0,1.12 0.27,1.98 0.81,2.56 0.54,0.58 1.28,0.88 2.2,0.88 z"
         id="path4969"
         inkscape:connector-curvature="0"
         style="fill:none" />
      <path
         d="m 341.37,-664.23 h 1.04 v 8.93 h 0.07 l 1.85,-1.68 3.51,-3.15 h 1.3 l -4.05,3.7 4.52,5.75 h -1.3 l -4.03,-5.13 -1.89,1.67 v 3.46 h -1.04 v -13.55 z"
         id="path4971"
         inkscape:connector-curvature="0"
         style="fill:none" />
      <path
         d="m 352.2,-651.59 h 3.55 v -7.62 h -3.55 v -0.92 h 4.59 v 8.53 h 3.31 v 0.92 h -7.91 v -0.91 z m 4.07,-11.06 c -0.33,0 -0.56,-0.07 -0.71,-0.21 -0.15,-0.14 -0.21,-0.31 -0.21,-0.52 v -0.24 c 0,-0.21 0.07,-0.38 0.21,-0.52 0.14,-0.14 0.38,-0.21 0.71,-0.21 0.33,0 0.56,0.07 0.71,0.21 0.14,0.14 0.21,0.31 0.21,0.52 v 0.24 c 0,0.21 -0.07,0.38 -0.21,0.52 -0.15,0.14 -0.38,0.21 -0.71,0.21 z"
         id="path4973"
         inkscape:connector-curvature="0"
         style="fill:none" />
      <path
         d="m 297.65,-629.25 v -12.78 h 1.1 v 11.83 h 6.26 v 0.95 z"
         id="path4975"
         inkscape:connector-curvature="0"
         style="fill:none" />
      <path
         d="m 315.02,-629.25 c -0.43,0 -0.73,-0.1 -0.92,-0.31 -0.18,-0.21 -0.29,-0.49 -0.31,-0.84 v -0.33 h -0.09 c -0.21,0.5 -0.55,0.91 -1.03,1.23 -0.48,0.32 -1.12,0.48 -1.94,0.48 -0.99,0 -1.77,-0.24 -2.33,-0.72 -0.57,-0.48 -0.85,-1.16 -0.85,-2.04 0,-0.42 0.07,-0.79 0.21,-1.13 0.14,-0.33 0.37,-0.62 0.68,-0.85 0.31,-0.23 0.71,-0.41 1.2,-0.54 0.49,-0.13 1.09,-0.19 1.79,-0.19 h 2.31 v -1.15 c 0,-0.79 -0.22,-1.38 -0.65,-1.77 -0.43,-0.39 -1.03,-0.58 -1.8,-0.58 -1.29,0 -2.2,0.51 -2.71,1.54 l -0.71,-0.51 c 0.24,-0.55 0.66,-1.01 1.24,-1.38 0.58,-0.37 1.33,-0.56 2.24,-0.56 1.07,0 1.92,0.28 2.53,0.83 0.61,0.55 0.92,1.33 0.92,2.32 v 5.6 h 1.41 v 0.92 h -1.19 z m -4.12,-0.66 c 0.4,0 0.78,-0.05 1.12,-0.15 0.34,-0.1 0.64,-0.23 0.9,-0.41 0.26,-0.18 0.46,-0.39 0.6,-0.65 0.15,-0.26 0.22,-0.54 0.22,-0.86 v -1.74 h -2.31 c -0.99,0 -1.7,0.15 -2.13,0.45 -0.43,0.3 -0.65,0.71 -0.65,1.22 v 0.48 c 0,0.55 0.2,0.96 0.61,1.25 0.41,0.27 0.96,0.41 1.64,0.41 z"
         id="path4977"
         inkscape:connector-curvature="0"
         style="fill:none" />
      <path
         d="m 317.84,-638.69 h 0.93 l 1.34,8.53 h 0.13 l 1.9,-8.53 h 1.21 l 1.9,8.53 h 0.13 l 1.32,-8.53 h 0.92 l -1.57,9.45 h -1.41 l -1.83,-8.37 h -0.11 l -1.87,8.37 h -1.41 z"
         id="path4979"
         inkscape:connector-curvature="0"
         style="fill:none" />
      <path
         d="m 297.04,-607.82 v -12.78 h 7.83 v 0.95 h -6.74 v 4.87 h 6.21 v 0.95 h -6.21 v 6 h -1.09 z"
         id="path4981"
         inkscape:connector-curvature="0"
         style="fill:none" />
      <path
         d="m 308.27,-608.73 h 3.55 v -7.62 h -3.55 v -0.92 h 4.6 v 8.53 h 3.31 v 0.92 h -7.91 z m 4.06,-11.06 c -0.33,0 -0.56,-0.07 -0.7,-0.21 -0.14,-0.14 -0.21,-0.31 -0.21,-0.52 v -0.24 c 0,-0.21 0.07,-0.38 0.21,-0.52 0.14,-0.14 0.38,-0.21 0.7,-0.21 0.33,0 0.56,0.07 0.71,0.21 0.14,0.14 0.21,0.31 0.21,0.52 v 0.24 c 0,0.21 -0.07,0.38 -0.21,0.52 -0.14,0.14 -0.38,0.21 -0.71,0.21 z"
         id="path4983"
         inkscape:connector-curvature="0"
         style="fill:none" />
      <path
         d="m 318.67,-608.73 h 2.97 v -7.62 h -2.97 v -0.92 h 4.01 v 2.16 h 0.07 c 0.21,-0.66 0.56,-1.18 1.07,-1.58 0.51,-0.39 1.17,-0.58 2,-0.58 h 1.63 v 1.02 h -1.94 c -0.85,0 -1.54,0.25 -2.06,0.76 -0.52,0.5 -0.78,1.18 -0.78,2.04 v 4.71 h 3.84 v 0.92 h -7.85 v -0.91 z"
         id="path4985"
         inkscape:connector-curvature="0"
         style="fill:none" />
      <path
         d="m 329.36,-607.82 v -9.45 h 0.97 v 1.1 h 0.05 c 0.15,-0.37 0.36,-0.68 0.65,-0.93 0.29,-0.26 0.69,-0.38 1.22,-0.38 0.54,0 0.95,0.13 1.24,0.39 0.29,0.26 0.48,0.62 0.55,1.09 h 0.04 c 0.17,-0.43 0.42,-0.78 0.73,-1.06 0.32,-0.28 0.76,-0.42 1.32,-0.42 0.73,0 1.24,0.24 1.53,0.72 0.29,0.48 0.43,1.18 0.43,2.1 v 6.85 h -0.97 v -6.68 c 0,-0.77 -0.11,-1.31 -0.32,-1.63 -0.21,-0.32 -0.55,-0.48 -1.02,-0.48 -0.44,0 -0.81,0.15 -1.12,0.45 -0.31,0.3 -0.46,0.75 -0.46,1.36 v 6.98 h -0.97 v -6.68 c 0,-0.77 -0.11,-1.31 -0.32,-1.63 -0.21,-0.32 -0.55,-0.48 -1.02,-0.48 -0.44,0 -0.81,0.15 -1.12,0.45 -0.31,0.3 -0.46,0.75 -0.46,1.36 v 6.98 h -0.95 z"
         id="path4987"
         inkscape:connector-curvature="0"
         style="fill:none" />
    </g>
    <g
       transform="matrix(0.35409938,0,0,0.35409938,-78.203452,500.23487)"
       id="g5001"
       style="fill:none;opacity:0">
      <g
         id="g4999"
         style="fill:none">
        <path
           class="st4"
           d="m 324.02,-720.28 v -18.16 h -8.89 v 22.11 c 2.95,-0.77 6.05,-2.01 8.89,-3.95 z"
           id="path4991"
           inkscape:connector-curvature="0"
           style="fill:none;stroke:#000000;stroke-miterlimit:10" />
        <path
           class="st4"
           d="m 350.69,-738.39 v 9.84 c -9.05,26.65 -31.1,31.74 -32.02,31.94 l -3.54,0.74 v 23.99 h 8.89 v -17.05 c 5.79,-1.99 17.5,-7.36 26.67,-20.16 v 37.21 h 8.89 v -66.51 z"
           id="path4993"
           inkscape:connector-curvature="0"
           style="fill:none;stroke:#000000;stroke-miterlimit:10" />
        <path
           class="st4"
           d="m 331.57,-709.75 c 4.34,-3.61 8.16,-8.75 10.22,-15.46 v -13.22 h -8.89 v 11.39 c -4.87,14.62 -19.51,16.91 -26.67,17.12 l 0.1,-28.47 h -8.89 l -0.1,66.51 h 8.89 v -29.11 c 7.58,-0.17 17.61,-2.32 25.34,-8.76 z"
           id="path4995"
           inkscape:connector-curvature="0"
           style="fill:none;stroke:#000000;stroke-miterlimit:10" />
        <path
           class="st4"
           d="m 332.91,-687.81 v 15.93 h 8.89 v -22.25 c -3.05,2.65 -6.1,4.72 -8.89,6.32 z"
           id="path4997"
           inkscape:connector-curvature="0"
           style="fill:none;stroke:#000000;stroke-miterlimit:10" />
      </g>
    </g>
  </g>
</svg>
