<svg width="288" height="288" viewBox="0 0 288 288" fill="none" xmlns="http://www.w3.org/2000/svg" xml:space="preserve" version="1.1">
    <g stroke="null" id="svg_51">
     <path stroke="#AEAEAE" id="svg_47" stroke-miterlimit="10" fill="none" d="m139.63697,55.91364l0,-33.74392l-16.56452,0l0,41.10386c5.49666,-1.43472 11.27282,-3.74518 16.56452,-7.35994z" class="st1"/>
     <path stroke="#AEAEAE" id="svg_48" stroke-miterlimit="10" fill="none" d="m189.33053,22.15108l0,18.35327c-16.86265,49.6563 -57.94788,59.14037 -59.66209,59.51303l-6.596,1.37882l0,44.69998l16.56452,0l0,-31.76885c10.78837,-3.70792 32.60733,-13.71371 49.69356,-37.56364l0,69.33249l16.56452,0l0,-123.98237l-16.56452,0.03727z" class="st1"/>
     <path stroke="#AEAEAE" id="svg_49" stroke-miterlimit="10" fill="none" d="m153.7047,75.53393c8.08662,-6.72643 15.20433,-16.30366 19.04268,-28.80624l0,-24.59524l-16.56452,0l0,21.18545c-9.07415,27.24109 -36.35251,31.50799 -49.69356,31.89928l0.18633,-53.04746l-16.56452,0l-0.18633,123.92647l16.56452,0l0,-54.23996c14.12363,-0.31676 32.81229,-4.3228 47.21541,-16.3223z" class="st1"/>
     <path stroke="#AEAEAE" id="svg_50" stroke-miterlimit="10" fill="none" d="m156.20149,116.4142l0,29.68198l16.56452,0l0,-41.45788c-5.68299,4.93768 -11.36598,8.79466 -16.56452,11.7759z" class="st1"/>
    </g>
</svg>