<?xml version="1.0" encoding="UTF-8" standalone="no"?>
<!-- Created with Inkscape (http://www.inkscape.org/) -->

<svg
   xmlns:dc="http://purl.org/dc/elements/1.1/"
   xmlns:cc="http://creativecommons.org/ns#"
   xmlns:rdf="http://www.w3.org/1999/02/22-rdf-syntax-ns#"
   xmlns:svg="http://www.w3.org/2000/svg"
   xmlns="http://www.w3.org/2000/svg"
   xmlns:sodipodi="http://sodipodi.sourceforge.net/DTD/sodipodi-0.dtd"
   xmlns:inkscape="http://www.inkscape.org/namespaces/inkscape"
   width="288"
   height="288"
   viewBox="0 0 76.199998 76.200002"
   version="1.1"
   id="svg5799"
   inkscape:version="0.92.0 r15299"
   sodipodi:docname="logo_en_no_fill_stroke_white_alpha_255.svg">
  <defs
     id="defs5793" />
  <sodipodi:namedview
     id="base"
     pagecolor="#ffffff"
     bordercolor="#666666"
     borderopacity="1.0"
     inkscape:pageopacity="0.0"
     inkscape:pageshadow="2"
     inkscape:zoom="2.8"
     inkscape:cx="-19.843912"
     inkscape:cy="181.14049"
     inkscape:document-units="mm"
     inkscape:current-layer="layer1"
     showgrid="false"
     units="px"
     inkscape:pagecheckerboard="true"
     inkscape:window-width="1920"
     inkscape:window-height="1057"
     inkscape:window-x="-8"
     inkscape:window-y="-8"
     inkscape:window-maximized="1" />
  <metadata
     id="metadata5796">
    <rdf:RDF>
      <cc:Work
         rdf:about="">
        <dc:format>image/svg+xml</dc:format>
        <dc:type
           rdf:resource="http://purl.org/dc/dcmitype/StillImage" />
        <dc:title />
      </cc:Work>
    </rdf:RDF>
  </metadata>
  <g
     inkscape:label="Layer 1"
     inkscape:groupmode="layer"
     id="layer1"
     transform="translate(0,-220.79998)">
    <g
       style="fill:none;fill-opacity:1;stroke:#ffffff;stroke-opacity:1"
       id="g5100"
       transform="matrix(0.30866001,0,0,0.30866001,-61.989072,524.24005)">
      <g
         style="fill:none;fill-opacity:1;stroke:#ffffff;stroke-opacity:1"
         id="g5098">
        <path
           class="st4"
           d="m 324.02,-905.98 v -18.11 h -8.89 v 22.06 c 2.95,-0.77 6.05,-2.01 8.89,-3.95 z"
           id="path5090"
           inkscape:connector-curvature="0"
           style="fill:none;fill-opacity:1;stroke:#ffffff;stroke-miterlimit:10;stroke-opacity:1" />
        <path
           class="st4"
           d="m 350.69,-924.1 v 9.85 c -9.05,26.65 -31.1,31.74 -32.02,31.94 l -3.54,0.74 v 23.99 h 8.89 v -17.05 c 5.79,-1.99 17.5,-7.36 26.67,-20.16 v 37.21 h 8.89 v -66.53 z"
           id="path5092"
           inkscape:connector-curvature="0"
           style="fill:none;fill-opacity:1;stroke:#ffffff;stroke-miterlimit:10;stroke-opacity:1" />
        <path
           class="st4"
           d="m 331.57,-895.45 c 4.34,-3.61 8.16,-8.75 10.22,-15.46 v -13.2 h -8.89 v 11.37 c -4.87,14.62 -19.51,16.91 -26.67,17.12 l 0.1,-28.47 h -8.89 l -0.1,66.51 h 8.89 v -29.11 c 7.58,-0.17 17.61,-2.32 25.34,-8.76 z"
           id="path5094"
           inkscape:connector-curvature="0"
           style="fill:none;fill-opacity:1;stroke:#ffffff;stroke-miterlimit:10;stroke-opacity:1" />
        <path
           class="st4"
           d="m 332.91,-873.51 v 15.93 h 8.89 v -22.25 c -3.05,2.65 -6.1,4.72 -8.89,6.32 z"
           id="path5096"
           inkscape:connector-curvature="0"
           style="fill:none;fill-opacity:1;stroke:#ffffff;stroke-miterlimit:10;stroke-opacity:1" />
      </g>
    </g>
    <path
       style="stroke:#ffffff;stroke-width:0.30749053;stroke-opacity:1"
       inkscape:connector-curvature="0"
       id="path4961"
       d="m 27.670401,268.26517 v -0.29211 h 2.702842 v 0.29211 z" />
    <path
       style="stroke:#ffffff;stroke-width:0.30749053;stroke-opacity:1"
       inkscape:connector-curvature="0"
       id="path4963"
       d="m 33.260579,265.53157 h -1.721947 v 1.84495 h -0.338239 v -3.92973 h 0.338239 v 1.7896 h 1.721947 v -1.7896 h 0.33824 v 3.92973 h -0.33824 z" />
    <path
       style="stroke:#ffffff;stroke-width:0.30749053;stroke-opacity:1"
       inkscape:connector-curvature="0"
       id="path4965"
       d="m 35.775852,267.44417 c -0.396663,0 -0.707228,-0.13222 -0.931697,-0.39973 -0.224467,-0.26752 -0.335164,-0.63959 -0.335164,-1.11928 0,-0.47968 0.110697,-0.85482 0.335164,-1.11926 0.224469,-0.26752 0.535034,-0.39974 0.931697,-0.39974 0.396662,0 0.707228,0.13222 0.931696,0.39974 0.224468,0.26752 0.335165,0.63958 0.335165,1.11926 0,0.47969 -0.110697,0.85483 -0.335165,1.11928 -0.221393,0.26751 -0.531959,0.39973 -0.931696,0.39973 z m 0,-0.27982 c 0.285966,0 0.510434,-0.0892 0.676479,-0.27059 0.166045,-0.18142 0.249067,-0.44279 0.249067,-0.78718 v -0.35976 c 0,-0.34439 -0.08302,-0.60883 -0.249067,-0.78718 -0.166045,-0.17834 -0.390513,-0.27059 -0.676479,-0.27059 -0.285966,0 -0.510435,0.0892 -0.676479,0.27059 -0.166046,0.18143 -0.249067,0.44279 -0.249067,0.78718 v 0.35976 c 0,0.34439 0.08302,0.60884 0.249067,0.78718 0.166044,0.17834 0.393588,0.27059 0.676479,0.27059 z" />
    <path
       style="stroke:#ffffff;stroke-width:0.30749053;stroke-opacity:1"
       inkscape:connector-curvature="0"
       id="path4967"
       d="m 37.814514,267.37652 v -2.90579 h 0.298266 v 0.33825 h 0.01537 c 0.04612,-0.11378 0.110697,-0.2091 0.19987,-0.28597 0.08917,-0.0799 0.212168,-0.11685 0.375138,-0.11685 0.166045,0 0.292116,0.0399 0.381288,0.11993 0.08917,0.0799 0.147596,0.19064 0.16912,0.33516 h 0.0123 c 0.05227,-0.13222 0.129146,-0.23984 0.224468,-0.32594 0.0984,-0.0861 0.233693,-0.12915 0.405887,-0.12915 0.224469,0 0.381289,0.0738 0.470461,0.2214 0.08917,0.14759 0.132221,0.36283 0.132221,0.64573 v 2.10631 h -0.298266 v -2.05404 c 0,-0.23677 -0.03383,-0.40281 -0.0984,-0.50121 -0.06457,-0.0984 -0.169119,-0.1476 -0.31364,-0.1476 -0.135295,0 -0.249067,0.0461 -0.34439,0.13837 -0.09532,0.0923 -0.141445,0.23062 -0.141445,0.4182 v 2.14628 h -0.298266 v -2.05404 c 0,-0.23677 -0.03383,-0.40281 -0.0984,-0.50121 -0.06457,-0.0984 -0.169119,-0.1476 -0.31364,-0.1476 -0.135296,0 -0.249067,0.0461 -0.34439,0.13837 -0.09532,0.0923 -0.141445,0.23062 -0.141445,0.4182 v 2.14628 h -0.292116 z" />
    <path
       style="stroke:#ffffff;stroke-width:0.30749053;stroke-opacity:1"
       inkscape:connector-curvature="0"
       id="path4969"
       d="m 42.531419,267.44417 c -0.396663,0 -0.707229,-0.13222 -0.931696,-0.39973 -0.224469,-0.26752 -0.335165,-0.63959 -0.335165,-1.11928 0,-0.47968 0.110696,-0.85482 0.335165,-1.11926 0.224467,-0.26752 0.535033,-0.39974 0.931696,-0.39974 0.396663,0 0.707228,0.13222 0.931696,0.39974 0.224468,0.26752 0.335164,0.63958 0.335164,1.11926 0,0.47969 -0.110696,0.85483 -0.335164,1.11928 -0.221393,0.26751 -0.531959,0.39973 -0.931696,0.39973 z m 0,-0.27982 c 0.285966,0 0.510434,-0.0892 0.676479,-0.27059 0.166044,-0.18142 0.249067,-0.44279 0.249067,-0.78718 v -0.35976 c 0,-0.34439 -0.08302,-0.60883 -0.249067,-0.78718 -0.166045,-0.17834 -0.390513,-0.27059 -0.676479,-0.27059 -0.285967,0 -0.510434,0.0892 -0.67648,0.27059 -0.166044,0.18143 -0.249067,0.44279 -0.249067,0.78718 v 0.35976 c 0,0.34439 0.08302,0.60884 0.249067,0.78718 0.166046,0.17834 0.393588,0.27059 0.67648,0.27059 z" />
    <path
       style="stroke:#ffffff;stroke-width:0.30749053;stroke-opacity:1"
       inkscape:connector-curvature="0"
       id="path4971"
       d="m 44.886796,263.21003 h 0.31979 v 2.74589 h 0.02152 l 0.568858,-0.51659 1.079292,-0.9686 h 0.399737 l -1.245336,1.13772 1.389857,1.76807 h -0.399738 l -1.239187,-1.57743 -0.581157,0.51351 v 1.06392 h -0.31979 v -4.16649 z" />
    <path
       style="stroke:#ffffff;stroke-width:0.30749053;stroke-opacity:1"
       inkscape:connector-curvature="0"
       id="path4973"
       d="m 48.216919,267.09671 h 1.091591 v -2.34308 h -1.091591 v -0.2829 H 49.6283 v 2.6229 h 1.017794 v 0.28289 h -2.43225 v -0.27981 z m 1.251485,-3.40085 c -0.101471,0 -0.172194,-0.0216 -0.218317,-0.0646 -0.04612,-0.043 -0.06457,-0.0953 -0.06457,-0.1599 v -0.0738 c 0,-0.0646 0.02152,-0.11685 0.06457,-0.1599 0.04305,-0.043 0.116846,-0.0646 0.218317,-0.0646 0.101472,0 0.172195,0.0216 0.218319,0.0646 0.04305,0.043 0.06457,0.0953 0.06457,0.1599 v 0.0738 c 0,0.0646 -0.02153,0.11685 -0.06457,0.1599 -0.04612,0.043 -0.116847,0.0646 -0.218319,0.0646 z" />
    <path
       style="stroke:#ffffff;stroke-width:0.30749053;stroke-opacity:1"
       inkscape:connector-curvature="0"
       id="path4975"
       d="m 31.443311,273.96604 v -3.92973 h 0.338239 v 3.63761 h 1.92489 v 0.29212 z" />
    <path
       style="stroke:#ffffff;stroke-width:0.30749053;stroke-opacity:1"
       inkscape:connector-curvature="0"
       id="path4977"
       d="m 36.784421,273.96604 c -0.132221,0 -0.224468,-0.0307 -0.282891,-0.0953 -0.05535,-0.0646 -0.08917,-0.15067 -0.09532,-0.25829 v -0.10147 h -0.02768 c -0.06457,0.15374 -0.169119,0.27981 -0.316714,0.37821 -0.147596,0.0984 -0.34439,0.1476 -0.596532,0.1476 -0.304416,0 -0.544258,-0.0738 -0.716453,-0.22139 -0.17527,-0.1476 -0.261367,-0.3567 -0.261367,-0.62729 0,-0.12915 0.02152,-0.24291 0.06457,-0.34746 0.04305,-0.10148 0.113772,-0.19065 0.209094,-0.26136 0.09532,-0.0708 0.218319,-0.12608 0.368989,-0.16605 0.15067,-0.04 0.335165,-0.0584 0.550408,-0.0584 h 0.710303 v -0.35362 c 0,-0.24292 -0.06765,-0.42434 -0.199869,-0.54426 -0.132221,-0.11992 -0.316715,-0.17835 -0.553483,-0.17835 -0.396662,0 -0.676479,0.15683 -0.833299,0.47354 l -0.218318,-0.15682 c 0.0738,-0.16911 0.202944,-0.31057 0.381288,-0.42433 0.178344,-0.11378 0.408962,-0.1722 0.688779,-0.1722 0.329014,0 0.590381,0.0861 0.77795,0.25522 0.18757,0.16912 0.282892,0.40896 0.282892,0.71338 v 1.72195 h 0.433561 v 0.28288 h -0.365913 z m -1.266862,-0.20294 c 0.122997,0 0.239844,-0.0154 0.34439,-0.0461 0.104547,-0.0307 0.196794,-0.0708 0.276742,-0.12607 0.07995,-0.0553 0.141446,-0.11992 0.184494,-0.19986 0.04612,-0.0799 0.06765,-0.16605 0.06765,-0.26445 v -0.53503 h -0.710303 c -0.304415,0 -0.522734,0.0461 -0.654955,0.13837 -0.13222,0.0923 -0.199869,0.21832 -0.199869,0.37514 v 0.1476 c 0,0.16911 0.0615,0.29518 0.18757,0.38435 0.126071,0.083 0.29519,0.12608 0.504284,0.12608 z" />
    <path
       style="stroke:#ffffff;stroke-width:0.30749053;stroke-opacity:1"
       inkscape:connector-curvature="0"
       id="path4979"
       d="m 37.651544,271.06333 h 0.285966 l 0.412037,2.6229 h 0.03998 l 0.584232,-2.6229 h 0.372064 l 0.584232,2.6229 h 0.03997 l 0.405888,-2.6229 h 0.282891 l -0.48276,2.90579 h -0.433561 l -0.562708,-2.5737 h -0.03383 l -0.575008,2.5737 h -0.433559 z" />
    <path
       style="stroke:#ffffff;stroke-width:0.30749053;stroke-opacity:1"
       inkscape:connector-curvature="0"
       id="path4981"
       d="m 31.255741,280.55557 v -3.92973 h 2.407651 v 0.29212 h -2.072486 v 1.49747 h 1.909516 v 0.29212 h -1.909516 v 1.84494 h -0.335165 z" />
    <path
       style="stroke:#ffffff;stroke-width:0.30749053;stroke-opacity:1"
       inkscape:connector-curvature="0"
       id="path4983"
       d="m 34.70886,280.27575 h 1.091591 v -2.34307 H 34.70886 v -0.2829 h 1.414456 v 2.62289 h 1.017794 v 0.2829 h -2.43225 z m 1.248412,-3.40084 c -0.101472,0 -0.172195,-0.0216 -0.215244,-0.0646 -0.04305,-0.043 -0.06457,-0.0953 -0.06457,-0.15989 v -0.0738 c 0,-0.0646 0.02152,-0.11685 0.06457,-0.1599 0.04305,-0.043 0.116846,-0.0646 0.215244,-0.0646 0.101471,0 0.172194,0.0216 0.218317,0.0646 0.04305,0.043 0.06457,0.0953 0.06457,0.1599 v 0.0738 c 0,0.0646 -0.02152,0.11684 -0.06457,0.15989 -0.04305,0.043 -0.116846,0.0646 -0.218317,0.0646 z" />
    <path
       style="stroke:#ffffff;stroke-width:0.30749053;stroke-opacity:1"
       inkscape:connector-curvature="0"
       id="path4985"
       d="m 37.906761,280.27575 h 0.913247 v -2.34307 h -0.913247 v -0.2829 h 1.233037 v 0.66418 h 0.02153 c 0.06457,-0.20294 0.172195,-0.36284 0.329014,-0.48584 0.15682,-0.11992 0.359764,-0.17834 0.614982,-0.17834 h 0.501209 v 0.31364 h -0.596532 c -0.261367,0 -0.473535,0.0768 -0.63343,0.2337 -0.159895,0.15374 -0.239843,0.36283 -0.239843,0.62728 v 1.44827 h 1.180764 v 0.2829 h -2.4138 v -0.27982 z" />
    <path
       style="stroke:#ffffff;stroke-width:0.30749053;stroke-opacity:1"
       inkscape:connector-curvature="0"
       id="path4987"
       d="m 41.193835,280.55557 v -2.90579 H 41.4921 v 0.33824 h 0.01537 c 0.04612,-0.11377 0.110697,-0.20909 0.199869,-0.28597 0.08917,-0.0799 0.212169,-0.11684 0.375139,-0.11684 0.166044,0 0.292116,0.0399 0.381288,0.11991 0.08917,0.0799 0.147595,0.19066 0.16912,0.33517 h 0.0123 c 0.05227,-0.13222 0.129146,-0.23984 0.224468,-0.32593 0.0984,-0.0861 0.233693,-0.12915 0.405888,-0.12915 0.224468,0 0.381288,0.0738 0.47046,0.22139 0.08917,0.1476 0.132221,0.36284 0.132221,0.64573 v 2.10631 h -0.298266 v -2.05404 c 0,-0.23677 -0.03383,-0.40281 -0.0984,-0.50121 -0.06457,-0.0984 -0.16912,-0.14759 -0.31364,-0.14759 -0.135296,0 -0.249068,0.0461 -0.344389,0.13837 -0.09532,0.0922 -0.141446,0.23062 -0.141446,0.41818 v 2.14629 h -0.298267 v -2.05404 c 0,-0.23677 -0.03383,-0.40281 -0.0984,-0.50121 -0.06457,-0.0984 -0.16912,-0.14759 -0.313641,-0.14759 -0.135295,0 -0.249067,0.0461 -0.344389,0.13837 -0.09532,0.0922 -0.141445,0.23062 -0.141445,0.41818 v 2.14629 h -0.292116 z" />
  </g>
</svg>
